<?xml version="1.0" standalone="no"?>
<!DOCTYPE svg PUBLIC "-//W3C//DTD SVG 20010904//EN"
 "http://www.w3.org/TR/2001/REC-SVG-20010904/DTD/svg10.dtd">
<svg version="1.0" xmlns="http://www.w3.org/2000/svg"
 width="1088.000000pt" height="695.000000pt" viewBox="0 0 1088.000000 695.000000"
 preserveAspectRatio="xMidYMid meet">

<g transform="translate(0.000000,695.000000) scale(0.100000,-0.100000)"
fill="#000000" stroke="none">
<path d="M3545 4255 c-76 -16 -146 -45 -257 -102 -90 -46 -104 -61 -68 -70 12
-3 53 -21 91 -39 64 -31 79 -34 158 -34 92 0 108 -7 125 -54 9 -26 -19 -117
-62 -201 -119 -232 -489 -620 -764 -802 -119 -78 -201 -113 -266 -113 -78 0
-100 38 -81 141 11 64 11 70 -11 106 -12 21 -32 64 -45 96 -12 32 -26 59 -31
59 -13 1 -119 -211 -138 -274 -47 -162 -37 -285 27 -340 55 -49 207 -50 337
-3 310 112 723 451 1004 826 302 402 364 752 142 808 -55 14 -84 13 -161 -4z"/>
<path d="M2915 4043 c-126 -17 -242 -78 -351 -187 -135 -136 -178 -252 -172
-466 l3 -127 47 -94 c44 -90 154 -229 180 -229 16 0 166 101 253 170 102 82
329 303 411 401 91 109 194 267 194 297 0 50 -148 164 -264 203 -95 33 -208
44 -301 32z"/>
<path d="M4724 3955 c-71 -40 -118 -89 -148 -154 -29 -65 -29 -188 1 -252 26
-57 84 -117 143 -148 53 -28 157 -37 460 -40 107 -1 235 -6 284 -10 88 -8 91
-10 127 -49 83 -88 49 -249 -59 -283 -25 -8 -164 -13 -412 -16 l-375 -5 -32
43 c-39 50 -41 65 -10 73 12 3 196 6 408 6 l386 0 9 33 c13 44 7 66 -22 78
-15 5 -221 9 -484 9 l-458 0 4 -77 c8 -122 12 -137 55 -197 64 -89 74 -91 534
-91 288 0 391 3 425 13 64 19 161 119 185 191 27 84 18 194 -23 257 -40 63
-88 109 -132 128 -54 22 -125 27 -476 34 -320 7 -321 7 -357 32 -49 34 -77 86
-77 147 0 62 26 110 79 148 l43 30 301 9 c362 11 452 4 497 -39 36 -35 47 -64
29 -76 -8 -5 -138 -9 -289 -10 -357 -1 -518 -10 -531 -29 -17 -27 -6 -64 25
-78 35 -17 929 -31 939 -15 3 5 2 49 -3 98 -17 161 -82 245 -205 265 -33 5
-222 10 -420 10 l-360 0 -61 -35z"/>
<path d="M5932 3803 l3 -188 240 -3 c132 -2 340 0 463 3 191 6 226 10 244 25
20 15 21 22 13 56 l-10 39 -408 0 -407 0 0 68 0 67 193 -1 c105 0 294 -4 418
-7 218 -7 227 -8 262 -32 73 -50 100 -143 65 -222 -23 -51 -44 -76 -78 -92
-17 -7 -181 -13 -510 -16 l-485 -5 -3 -312 -2 -313 190 0 190 0 0 185 0 185
-60 0 -59 0 -3 -117 -3 -118 -57 -3 -58 -3 0 181 0 180 248 1 c136 0 330 4
432 8 209 8 235 15 306 87 64 63 88 123 88 219 1 93 -19 148 -80 214 -84 94
-129 100 -717 101 l-417 0 2 -187z"/>
<path d="M7250 3430 l0 -560 191 0 192 0 -6 73 c-5 74 -21 116 -86 227 l-26
45 -5 -105 -5 -105 -57 -3 -58 -3 0 437 0 437 93 -7 c50 -4 97 -12 103 -19 6
-7 84 -139 172 -295 165 -288 241 -412 253 -412 4 0 68 105 142 233 74 127
168 289 208 359 l74 128 96 0 96 0 6 -182 c4 -99 7 -293 7 -430 l0 -248 -65 0
-65 0 -1 118 c-1 64 -4 225 -8 356 l-6 239 -204 -351 -205 -350 -69 -7 c-52
-6 -72 -4 -82 6 -7 8 -93 151 -190 319 -199 340 -217 370 -227 370 -5 0 -8
-46 -8 -102 l0 -102 162 -285 c88 -157 170 -298 180 -314 l20 -28 140 3 141 3
113 200 114 199 0 -110 c0 -61 3 -152 6 -202 l7 -92 183 0 184 0 0 560 0 560
-197 0 -198 0 -79 -143 c-80 -141 -266 -469 -271 -475 -5 -6 -116 178 -237
394 l-119 211 -97 6 c-53 4 -145 7 -204 7 l-108 0 0 -560z"/>
<path d="M3497 3263 c-128 -143 -262 -275 -392 -383 -47 -39 -84 -74 -81 -77
7 -7 109 16 187 42 121 41 247 141 322 255 51 78 116 290 88 290 -5 0 -61 -57
-124 -127z"/>
</g>
</svg>
